<svg width="64" height="57" viewBox="0 0 64 57" fill="none" xmlns="http://www.w3.org/2000/svg">
<path d="M27.7033 24.8188V7.15256e-07H0V19.5938C0 30.2021 1.5311 37.8813 4.5933 42.6313C8.61244 48.9646 14.9761 53.7542 23.6842 57L30 48.6875C24.7368 46.8667 20.8612 44.1354 18.3732 40.4938C15.8852 36.9313 14.4976 31.7063 14.2105 24.8188H27.7033Z" fill="white"/>
<path d="M61.7033 24.8188V7.15256e-07H34V19.5938C34 30.2021 35.5311 37.8813 38.5933 42.6313C42.6124 48.9646 48.9761 53.7542 57.6842 57L64 48.6875C58.7368 46.8667 54.8612 44.1354 52.3732 40.4938C49.8852 36.9313 48.4976 31.7063 48.2105 24.8188H61.7033Z" fill="white"/>
</svg>
