<svg width="447" height="266" viewBox="0 0 447 266" fill="none" xmlns="http://www.w3.org/2000/svg">
<path d="M34.0796 220.4C28.7463 220.4 23.8929 219.067 19.5196 216.4C15.2529 213.627 11.8396 209.894 9.27961 205.2C6.82628 200.4 5.59961 195.067 5.59961 189.2C5.59961 182.267 7.09294 175.974 10.0796 170.32C13.1729 164.667 17.2796 160.187 22.3996 156.88C27.5196 153.467 33.1729 151.76 39.3596 151.76C46.2929 151.76 52.3729 153.627 57.5996 157.36C58.8796 158.32 59.5196 159.334 59.5196 160.4C59.5196 161.254 59.1463 162.214 58.3996 163.28C57.6529 164.347 56.7463 165.254 55.6796 166C54.6129 166.64 53.5996 166.96 52.6396 166.96C52.1063 166.96 51.5729 166.8 51.0396 166.48C50.5063 166.054 49.9196 165.627 49.2796 165.2C46.9329 163.387 44.3196 161.68 41.4396 160.08C38.5596 158.48 36.1596 157.68 34.2396 157.68C29.0129 157.68 24.7463 160.134 21.4396 165.04C18.2396 169.84 16.6396 176.187 16.6396 184.08C16.6396 189.094 17.7063 193.627 19.8396 197.68C22.0796 201.734 25.0129 204.934 28.6396 207.28C32.3729 209.627 36.4796 210.8 40.9596 210.8C44.0529 210.8 46.7196 210.32 48.9596 209.36C51.1996 208.294 53.5996 206.48 56.1596 203.92C56.3729 203.707 56.6396 203.547 56.9596 203.44C57.2796 203.227 57.5463 203.12 57.7596 203.12C58.9329 203.12 59.5196 203.867 59.5196 205.36C59.5196 206 59.3063 206.747 58.8796 207.6C58.5596 208.347 57.9729 209.254 57.1196 210.32C55.4129 212.454 53.3863 214.32 51.0396 215.92C48.6929 217.414 46.0796 218.534 43.1996 219.28C40.4263 220.027 37.3863 220.4 34.0796 220.4Z" fill="white"/>
<path d="M81.5321 220.24C79.6121 220.24 77.6388 219.494 75.6121 218C73.6921 216.507 72.0388 214.694 70.6521 212.56C69.3721 210.427 68.7321 208.4 68.7321 206.48C68.7321 203.067 69.6388 200.4 71.4521 198.48C73.2654 196.56 76.1454 194.8 80.0921 193.2L96.4121 186.48C98.5454 185.627 99.7721 184.88 100.092 184.24C100.519 183.6 100.785 182.214 100.892 180.08L101.212 169.84C101.319 167.067 100.519 164.667 98.8121 162.64C97.2121 160.614 94.8654 159.6 91.7721 159.6C90.1721 159.6 88.5721 159.867 86.9721 160.4C85.3721 160.934 84.0388 161.627 82.9721 162.48C82.3321 162.907 81.9054 163.547 81.6921 164.4C81.4788 165.254 81.3721 166.16 81.3721 167.12C81.3721 167.547 81.3721 168.027 81.3721 168.56C81.4788 169.094 81.5321 169.574 81.5321 170C81.5321 170.534 80.8388 171.28 79.4521 172.24C78.1721 173.094 76.6788 173.894 74.9721 174.64C73.3721 175.28 72.0388 175.6 70.9721 175.6C70.4388 175.6 70.0121 175.494 69.6921 175.28C69.3721 174.96 69.2121 174.587 69.2121 174.16C69.2121 172.454 69.7454 170.64 70.8121 168.72C71.9854 166.694 73.5854 164.827 75.6121 163.12C78.0654 160.88 80.7321 158.907 83.6121 157.2C86.4921 155.494 89.3188 154.16 92.0921 153.2C94.8654 152.24 97.3188 151.76 99.4521 151.76C103.292 151.76 106.439 153.147 108.892 155.92C111.452 158.587 112.679 161.947 112.572 166L111.772 204.4C111.665 206.64 112.145 208.454 113.212 209.84C114.385 211.227 115.825 211.92 117.532 211.92C120.199 211.92 122.172 211.334 123.452 210.16C123.985 209.627 124.412 209.36 124.732 209.36C125.265 209.36 125.692 209.52 126.012 209.84C126.332 210.16 126.492 210.587 126.492 211.12C126.492 212.294 125.905 213.467 124.732 214.64C123.025 216.347 121.159 217.68 119.132 218.64C117.212 219.707 115.399 220.24 113.692 220.24C108.785 220.24 104.892 217.467 102.012 211.92H101.532C98.0121 214.8 94.6521 216.88 91.4521 218.16C88.2521 219.547 84.9454 220.24 81.5321 220.24ZM89.0521 212.56C91.1854 212.56 92.9988 212.24 94.4921 211.6C95.9854 210.854 97.3188 209.894 98.4921 208.72C99.0254 208.187 99.4521 207.494 99.7721 206.64C100.199 205.68 100.465 204.187 100.572 202.16L100.892 194.32C100.999 193.147 100.945 192.294 100.732 191.76C100.519 191.227 100.092 190.96 99.4521 190.96C99.2388 190.96 98.8654 191.014 98.3321 191.12C97.7988 191.227 97.1054 191.44 96.2521 191.76C90.5988 193.787 86.6521 195.92 84.4121 198.16C82.2788 200.294 81.2121 202.267 81.2121 204.08C81.2121 206.854 82.0121 208.987 83.6121 210.48C85.3188 211.867 87.1321 212.56 89.0521 212.56Z" fill="white"/>
<path d="M133.118 263.6C132.585 263.6 131.892 263.494 131.038 263.28C130.185 263.174 129.758 262.8 129.758 262.16C129.758 261.307 130.132 260.667 130.878 260.24C131.732 259.92 132.585 259.6 133.438 259.28C135.038 258.747 136.585 258.107 138.078 257.36C139.572 256.72 140.318 255.334 140.318 253.2V172.08C140.318 171.227 140.052 169.947 139.518 168.24C139.092 166.534 138.345 164.88 137.278 163.28C136.212 161.68 134.772 160.72 132.958 160.4C132.532 160.294 132.212 160.027 131.998 159.6C131.785 159.174 131.678 158.747 131.678 158.32C131.678 157.787 131.785 157.36 131.998 157.04C132.212 156.72 132.478 156.507 132.798 156.4C136.852 155.44 140.318 154.427 143.198 153.36C146.078 152.187 148.798 151.067 151.358 150C151.465 150 151.518 150 151.518 150C151.518 149.894 151.572 149.84 151.678 149.84C151.892 149.84 152.105 150 152.318 150.32C152.532 150.64 152.638 150.96 152.638 151.28C152.638 152.24 152.478 153.787 152.158 155.92C151.945 157.947 151.838 159.6 151.838 160.88C151.838 161.734 151.892 162.214 151.998 162.32C153.065 161.254 154.985 159.92 157.758 158.32C160.638 156.614 163.892 155.12 167.518 153.84C171.145 152.454 174.612 151.76 177.918 151.76C183.465 151.76 188.158 153.254 191.998 156.24C195.945 159.12 198.932 162.907 200.958 167.6C203.092 172.187 204.158 176.987 204.158 182C204.158 186.8 203.252 191.494 201.438 196.08C199.625 200.56 197.065 204.614 193.758 208.24C190.452 211.867 186.612 214.8 182.238 217.04C177.865 219.174 173.172 220.24 168.158 220.24C166.665 220.24 164.852 219.974 162.718 219.44C160.692 219.014 158.665 218.427 156.638 217.68C154.718 216.934 153.225 216.08 152.158 215.12C152.052 215.12 151.945 215.76 151.838 217.04C151.732 218.214 151.625 219.44 151.518 220.72C151.518 222.107 151.518 222.96 151.518 223.28V253.2C151.518 254.587 152.052 255.654 153.118 256.4C154.292 257.254 155.572 257.84 156.958 258.16C158.452 258.587 159.732 258.96 160.798 259.28C161.652 259.6 162.452 259.92 163.198 260.24C164.052 260.667 164.478 261.307 164.478 262.16C164.478 262.8 164.052 263.174 163.198 263.28C162.345 263.494 161.598 263.6 160.958 263.6C157.865 263.6 155.252 263.44 153.118 263.12C151.092 262.907 148.692 262.8 145.918 262.8C144.105 262.8 142.612 262.854 141.438 262.96C140.372 263.067 139.252 263.174 138.078 263.28C136.905 263.494 135.252 263.6 133.118 263.6ZM170.558 215.28C172.158 215.28 174.078 214.8 176.318 213.84C178.665 212.88 180.958 211.334 183.198 209.2C185.545 207.067 187.465 204.187 188.958 200.56C190.558 196.934 191.358 192.454 191.358 187.12C191.358 180.934 190.558 175.974 188.958 172.24C187.358 168.507 185.385 165.68 183.038 163.76C180.692 161.84 178.292 160.56 175.838 159.92C173.385 159.28 171.305 158.96 169.598 158.96C167.038 158.96 164.372 159.494 161.598 160.56C158.932 161.627 156.638 162.854 154.718 164.24C152.905 165.52 151.998 166.534 151.998 167.28C151.998 169.627 151.945 172.027 151.838 174.48C151.838 176.827 151.785 179.12 151.678 181.36C151.678 183.6 151.625 185.627 151.518 187.44C151.518 189.147 151.518 190.48 151.518 191.44C151.518 195.707 152.478 199.654 154.398 203.28C156.425 206.907 158.878 209.84 161.758 212.08C164.745 214.214 167.678 215.28 170.558 215.28Z" fill="white"/>
<path d="M232.727 220.24C229.42 220.24 226.327 219.707 223.447 218.64C220.567 217.68 218.114 216.294 216.087 214.48C215.554 213.307 215.127 211.334 214.807 208.56C214.594 205.787 214.434 203.494 214.327 201.68C214.327 200.72 215.02 200.24 216.407 200.24C216.834 200.24 217.207 200.347 217.527 200.56C217.954 200.667 218.22 200.934 218.327 201.36C219.714 206.587 221.9 210.32 224.887 212.56C227.98 214.8 231.074 215.92 234.167 215.92C237.26 215.92 239.874 214.907 242.007 212.88C244.247 210.747 245.367 208.134 245.367 205.04C245.367 202.16 244.407 199.707 242.487 197.68C240.567 195.547 237.207 192.987 232.407 190C228.78 187.76 225.847 185.627 223.607 183.6C221.367 181.574 219.714 179.494 218.647 177.36C217.687 175.227 217.207 172.827 217.207 170.16C217.207 166.747 218.007 163.654 219.607 160.88C221.207 158.107 223.607 155.92 226.807 154.32C230.007 152.614 234.007 151.76 238.807 151.76C242.007 151.76 244.674 152.08 246.807 152.72C248.94 153.36 250.54 154.054 251.607 154.8C252.46 155.974 253.154 157.84 253.687 160.4C254.327 162.854 254.647 165.2 254.647 167.44C254.647 168.187 254.114 168.56 253.047 168.56C252.407 168.56 251.767 168.454 251.127 168.24C250.594 167.92 250.22 167.547 250.007 167.12C248.62 163.6 246.86 160.934 244.727 159.12C242.7 157.2 240.14 156.24 237.047 156.24C234.38 156.24 231.98 157.04 229.847 158.64C227.82 160.24 226.807 162.587 226.807 165.68C226.807 168.134 227.554 170.32 229.047 172.24C230.647 174.16 233.58 176.347 237.847 178.8C244.034 182.32 248.62 185.627 251.607 188.72C254.7 191.707 256.247 195.707 256.247 200.72C256.247 206.48 254.06 211.174 249.687 214.8C245.314 218.427 239.66 220.24 232.727 220.24Z" fill="white"/>
<path d="M319.966 221.04C319.219 221.04 318.846 220.614 318.846 219.76C318.846 218.694 318.953 217.147 319.166 215.12C319.486 212.987 319.646 211.227 319.646 209.84C319.646 209.627 319.646 209.467 319.646 209.36C319.646 209.147 319.646 208.987 319.646 208.88C315.486 212.934 311.273 215.867 307.006 217.68C302.846 219.387 298.259 220.24 293.246 220.24C289.833 220.24 286.739 219.494 283.966 218C281.193 216.614 279.006 214.534 277.406 211.76C275.806 208.88 275.006 205.36 275.006 201.2V168.72C275.006 166.374 274.473 164.507 273.406 163.12C272.339 161.734 270.579 160.56 268.126 159.6C267.593 159.387 267.113 159.12 266.686 158.8C266.259 158.48 266.046 157.894 266.046 157.04C266.046 156.08 266.259 155.44 266.686 155.12C267.219 154.8 267.806 154.587 268.446 154.48C272.073 154.267 274.846 154 276.766 153.68C278.793 153.254 281.299 152.667 284.286 151.92C284.606 151.814 284.819 151.76 284.926 151.76C285.139 151.76 285.353 151.76 285.566 151.76C286.739 151.76 287.273 152.507 287.166 154C286.846 156.454 286.579 158.534 286.366 160.24C286.259 161.84 286.206 163.867 286.206 166.32V197.52C286.206 200.08 286.846 202.48 288.126 204.72C289.406 206.854 291.059 208.614 293.086 210C295.219 211.387 297.406 212.08 299.646 212.08C302.419 212.08 304.819 211.92 306.846 211.6C308.979 211.28 311.059 210.374 313.086 208.88C314.259 208.027 315.753 206.64 317.566 204.72C319.379 202.8 320.286 200.187 320.286 196.88V167.6C320.286 165.36 319.593 163.707 318.206 162.64C316.926 161.467 315.433 160.667 313.726 160.24C312.019 159.814 310.633 159.6 309.566 159.6C308.606 159.6 307.806 159.44 307.166 159.12C306.526 158.694 306.206 157.947 306.206 156.88C306.206 155.92 306.526 155.28 307.166 154.96C307.913 154.64 308.713 154.48 309.566 154.48C312.873 154.374 315.593 154.267 317.726 154.16C319.966 153.947 321.939 153.68 323.646 153.36C325.459 152.934 327.326 152.454 329.246 151.92C329.459 151.814 329.726 151.76 330.046 151.76C330.366 151.654 330.633 151.6 330.846 151.6C332.233 151.6 332.926 152.187 332.926 153.36C332.926 153.467 332.873 153.68 332.766 154C332.766 154.214 332.713 154.48 332.606 154.8C332.499 155.12 332.339 156.027 332.126 157.52C332.019 159.014 331.859 160.56 331.646 162.16C331.539 163.76 331.486 164.987 331.486 165.84V202.8C331.486 205.68 331.753 207.76 332.286 209.04C332.926 210.214 333.619 210.8 334.366 210.8C335.219 210.8 336.446 210.747 338.046 210.64C339.753 210.427 340.979 210.32 341.726 210.32C342.259 210.32 342.793 210.427 343.326 210.64C343.859 210.854 344.126 211.44 344.126 212.4C344.126 213.254 343.913 213.84 343.486 214.16C343.059 214.374 342.526 214.534 341.886 214.64C337.726 215.174 334.153 215.974 331.166 217.04C328.179 218.107 325.513 219.12 323.166 220.08C322.846 220.187 322.366 220.347 321.726 220.56C321.086 220.88 320.499 221.04 319.966 221.04Z" fill="white"/>
<path d="M352.021 218.48C351.488 218.48 350.794 218.374 349.941 218.16C349.194 218.054 348.821 217.68 348.821 217.04C348.821 216.187 349.194 215.6 349.941 215.28C350.794 214.854 351.648 214.48 352.501 214.16C354.101 213.627 355.648 213.04 357.141 212.4C358.634 211.654 359.381 210.214 359.381 208.08V127.44C359.381 124.347 358.794 121.787 357.621 119.76C356.554 117.627 354.688 116.294 352.021 115.76C351.168 115.547 350.741 114.854 350.741 113.68C350.741 112.614 351.114 111.974 351.861 111.76C354.634 111.12 357.034 110.48 359.061 109.84C361.088 109.094 362.954 108.347 364.661 107.6C366.474 106.854 368.234 106.16 369.941 105.52C370.368 105.307 370.688 105.2 370.901 105.2C371.114 105.2 371.274 105.36 371.381 105.68C371.594 105.894 371.701 106.107 371.701 106.32C371.701 107.28 371.488 109.36 371.061 112.56C370.741 115.654 370.581 120.827 370.581 128.08V208.08C370.581 210.214 371.328 211.654 372.821 212.4C374.314 213.04 375.861 213.627 377.461 214.16C378.314 214.48 379.114 214.854 379.861 215.28C380.714 215.6 381.141 216.187 381.141 217.04C381.141 217.68 380.714 218.054 379.861 218.16C379.114 218.374 378.474 218.48 377.941 218.48C375.914 218.48 374.261 218.374 372.981 218.16C371.808 218.054 370.634 217.947 369.461 217.84C368.394 217.734 366.901 217.68 364.981 217.68C363.168 217.68 361.674 217.734 360.501 217.84C359.328 217.947 358.154 218.054 356.981 218.16C355.808 218.374 354.154 218.48 352.021 218.48Z" fill="white"/>
<path d="M418.298 220.4C412.432 220.4 407.312 218.96 402.938 216.08C398.565 213.2 395.152 209.147 392.698 203.92C390.245 198.587 389.018 192.454 389.018 185.52C389.018 179.334 390.405 173.734 393.178 168.72C396.058 163.6 399.845 159.494 404.538 156.4C409.232 153.307 414.352 151.76 419.898 151.76C424.165 151.76 427.952 152.614 431.258 154.32C434.565 156.027 437.125 158.427 438.938 161.52C440.858 164.507 441.818 167.974 441.818 171.92C441.818 175.227 440.218 176.88 437.018 176.88H403.258C401.765 176.88 400.698 177.307 400.058 178.16C399.525 178.907 399.258 180.454 399.258 182.8C399.258 187.92 400.378 192.614 402.618 196.88C404.858 201.04 407.845 204.4 411.578 206.96C415.312 209.414 419.418 210.64 423.898 210.64C427.098 210.64 429.978 210.054 432.538 208.88C435.205 207.6 437.552 205.787 439.578 203.44C440.005 202.907 440.325 202.587 440.538 202.48C440.752 202.267 441.018 202.16 441.338 202.16C442.192 202.16 442.618 202.694 442.618 203.76C442.618 205.787 441.658 208.027 439.738 210.48C438.138 212.507 436.218 214.267 433.978 215.76C431.738 217.254 429.285 218.374 426.618 219.12C423.952 219.974 421.178 220.4 418.298 220.4ZM403.578 171.92H418.138C420.698 171.92 422.885 171.867 424.698 171.76C426.512 171.654 428.272 171.44 429.978 171.12C430.512 171.014 430.832 170.694 430.938 170.16C431.152 169.52 431.258 168.667 431.258 167.6C431.258 164.507 429.872 161.894 427.098 159.76C424.432 157.52 421.232 156.4 417.498 156.4C415.045 156.4 412.592 157.147 410.138 158.64C407.685 160.027 405.658 161.787 404.058 163.92C402.458 166.054 401.658 168.187 401.658 170.32C401.658 171.387 402.298 171.92 403.578 171.92Z" fill="white"/>
<path d="M10.2397 102.24C9.38635 102.24 8.42635 101.867 7.35969 101.12C6.29302 100.48 5.38635 99.7333 4.63969 98.8799C3.99969 97.9199 3.67969 97.0666 3.67969 96.3199C3.67969 94.5066 3.89302 92.9599 4.31969 91.6799C4.85302 90.3999 5.38635 88.9599 5.91969 87.3599L21.1197 44.6399C21.333 43.8933 21.2264 43.4133 20.7997 43.1999C20.4797 42.8799 20.053 42.7199 19.5197 42.7199L13.1197 42.3999C11.733 42.2933 10.8797 42.0266 10.5597 41.5999C10.3464 41.0666 10.2397 40.5866 10.2397 40.1599C10.2397 39.9466 10.5064 39.5733 11.0397 39.0399C11.573 38.3999 12.213 37.8133 12.9597 37.2799C13.813 36.6399 14.7197 36.3199 15.6797 36.3199H21.4397C22.613 36.3199 23.413 36.1599 23.8397 35.8399C24.2664 35.4133 24.7464 34.6133 25.2797 33.4399L29.1197 25.5999C29.5464 24.7466 30.3464 23.7866 31.5197 22.7199C32.693 21.5466 33.8664 20.5333 35.0397 19.6799C36.3197 18.8266 37.2264 18.3999 37.7597 18.3999C38.613 18.3999 39.1464 18.9866 39.3597 20.1599C39.573 21.3333 39.4664 22.4533 39.0397 23.5199L34.8797 34.2399C34.6664 34.9866 34.7197 35.4666 35.0397 35.6799C35.4664 35.8933 36.1064 35.9999 36.9597 35.9999C39.093 35.9999 41.2797 36.1599 43.5197 36.4799C45.7597 36.7999 47.573 37.0666 48.9597 37.2799C50.6664 37.5999 51.6797 37.9733 51.9997 38.3999C52.4264 38.7199 52.6397 39.1466 52.6397 39.6799C52.6397 39.8933 52.4264 40.2666 51.9997 40.7999C51.573 41.2266 50.773 41.4933 49.5997 41.5999C47.253 41.7066 45.013 41.8666 42.8797 42.0799C40.7464 42.1866 38.5064 42.2933 36.1597 42.3999C34.453 42.5066 33.2264 42.7733 32.4797 43.1999C31.8397 43.6266 31.413 44.1599 31.1997 44.7999L16.9597 84.1599C16.533 85.4399 16.3197 86.5599 16.3197 87.5199C16.3197 88.4799 16.5864 89.2266 17.1197 89.7599C17.7597 90.2933 18.6664 90.5599 19.8397 90.5599C21.333 90.5599 22.933 90.0266 24.6397 88.9599C26.3464 87.8932 27.9997 86.6666 29.5997 85.2799C31.1997 83.8933 32.533 82.6666 33.5997 81.5999C34.773 80.4266 35.7864 79.8933 36.6397 79.9999C37.493 80.1066 37.9197 80.4799 37.9197 81.1199C37.9197 81.8666 37.653 82.7199 37.1197 83.6799C36.5864 84.5332 35.893 85.4399 35.0397 86.3999C33.333 88.2133 31.5197 89.9199 29.5997 91.5199C27.7864 93.1199 25.8664 94.6133 23.8397 95.9999C21.9197 97.2799 20.053 98.3999 18.2397 99.3599C16.533 100.213 14.9864 100.907 13.5997 101.44C12.213 101.973 11.093 102.24 10.2397 102.24Z" fill="white"/>
<path d="M54.0784 102.24C52.2651 102.24 50.7718 101.653 49.5984 100.48C48.4251 99.3066 47.8384 98.0799 47.8384 96.7999C47.8384 96.3733 47.8384 95.9466 47.8384 95.5199C47.9451 95.0933 48.1051 94.6666 48.3184 94.2399C52.6918 85.3866 56.3718 77.0666 59.3584 69.2799C62.3451 61.3866 65.0118 54.5066 67.3584 48.6399C67.7851 47.3599 67.5184 46.7199 66.5584 46.7199C66.0251 46.7199 64.9584 47.0399 63.3584 47.6799C61.8651 48.2133 60.2651 48.9599 58.5584 49.9199C56.8518 50.8799 55.3584 51.8399 54.0784 52.7999C53.5451 53.2266 53.0118 53.3333 52.4784 53.1199C51.9451 52.9066 51.6784 52.5333 51.6784 51.9999C51.6784 51.4666 52.0518 50.7199 52.7984 49.7599C53.6518 48.6933 54.7718 47.5199 56.1584 46.2399C57.6518 44.9599 59.4118 43.6266 61.4384 42.2399C63.4651 40.7466 65.6518 39.3066 67.9984 37.9199C70.4518 36.4266 73.0118 35.0933 75.6784 33.9199C76.6384 33.4933 77.5984 33.5999 78.5584 34.2399C79.5184 34.8799 80.2651 35.6799 80.7984 36.6399C81.4384 37.5999 81.6518 38.3466 81.4384 38.8799L61.9184 85.1199C61.4918 85.9733 61.1718 86.8266 60.9584 87.6799C60.8518 88.4266 60.7984 89.1199 60.7984 89.7599C60.7984 90.5066 61.0651 91.0399 61.5984 91.3599C62.2384 91.5733 62.8251 91.6799 63.3584 91.6799C64.8518 91.6799 66.5584 90.9866 68.4784 89.5999C70.3984 88.1066 72.4251 86.3466 74.5584 84.3199C76.7984 82.1866 78.9318 80.1066 80.9584 78.0799C81.1718 77.8666 81.3851 77.7599 81.5984 77.7599C81.8118 77.7599 82.0251 77.8666 82.2384 78.0799C82.4518 78.1866 82.5584 78.3466 82.5584 78.5599C82.5584 80.2666 81.5451 82.4533 79.5184 85.1199C77.4918 87.6799 74.9318 90.2933 71.8384 92.9599C68.8518 95.5199 65.7584 97.7066 62.5584 99.5199C59.3584 101.333 56.5318 102.24 54.0784 102.24ZM86.3984 17.9199C84.7984 17.9199 83.4651 17.2799 82.3984 15.9999C81.3318 14.7199 80.7984 13.2799 80.7984 11.6799C80.7984 9.11992 81.6518 6.87992 83.3584 4.95992C85.0651 2.93325 87.1984 1.91992 89.7584 1.91992C91.4651 1.91992 92.7984 2.66659 93.7584 4.15992C94.7184 5.54659 95.1984 7.09325 95.1984 8.79992C95.1984 11.1466 94.3451 13.2799 92.6384 15.1999C90.9318 17.0133 88.8518 17.9199 86.3984 17.9199Z" fill="white"/>
<path d="M97.0059 102.72C96.4726 102.72 95.9926 102.453 95.5659 101.92C95.1393 101.387 94.7659 100.747 94.4459 99.9999C94.2326 99.2533 94.1259 98.5599 94.1259 97.9199C94.1259 97.3866 94.4459 96.1066 95.0859 94.0799C95.8326 92.0533 96.7393 89.5466 97.8059 86.5599L112.526 47.9999C113.059 46.6133 113.059 45.4399 112.526 44.4799C111.993 43.5199 111.086 43.0399 109.806 43.0399C108.206 43.0399 106.499 43.4133 104.686 44.1599C102.979 44.9066 100.846 46.9866 98.2859 50.3999C97.8593 50.8266 97.3793 51.0399 96.8459 51.0399C96.4193 50.9333 96.0993 50.5066 95.8859 49.7599C95.8859 49.1199 95.9926 48.3199 96.2059 47.3599C96.4193 46.2933 96.7393 45.2266 97.1659 44.1599C97.6993 43.0933 98.1793 42.2933 98.6059 41.7599C100.419 39.5199 102.606 37.6533 105.166 36.1599C107.726 34.6666 110.819 33.8666 114.446 33.7599C115.939 33.7599 117.379 34.0266 118.766 34.5599C120.259 34.9866 121.326 35.8399 121.966 37.1199C122.713 38.3999 122.659 40.1599 121.806 42.3999L112.686 66.0799C112.366 66.8266 112.419 67.2533 112.846 67.3599C113.379 67.4666 113.806 67.2533 114.126 66.7199C118.713 59.6799 123.086 53.7066 127.246 48.7999C131.513 43.8933 135.566 40.1599 139.406 37.5999C143.353 35.0399 147.033 33.7599 150.446 33.7599C152.473 33.7599 154.286 34.3466 155.886 35.5199C157.593 36.6933 158.713 38.4533 159.246 40.7999C159.886 43.0399 159.619 45.8666 158.446 49.2799L152.686 66.0799C152.366 66.8266 152.419 67.2533 152.846 67.3599C153.379 67.4666 153.806 67.2533 154.126 66.7199C158.606 59.3599 162.979 53.2799 167.246 48.4799C171.619 43.5733 175.833 39.8933 179.886 37.4399C183.939 34.9866 187.673 33.7599 191.086 33.7599C193.113 33.7599 194.926 34.3999 196.526 35.6799C198.126 36.9599 199.139 38.8799 199.566 41.4399C200.099 43.8933 199.619 46.9866 198.126 50.7199L184.366 86.2399C182.766 90.0799 183.033 91.9999 185.166 91.9999C186.446 91.9999 187.993 91.4133 189.806 90.2399C191.619 89.0666 193.433 87.6799 195.246 86.0799C197.166 84.4799 198.819 83.0399 200.206 81.7599C201.593 80.3733 202.499 79.4666 202.926 79.0399C203.033 78.9333 203.086 78.8799 203.086 78.8799C203.193 78.8799 203.299 78.8799 203.406 78.8799C203.726 78.8799 203.993 79.0399 204.206 79.3599C204.526 79.5733 204.686 79.8932 204.686 80.3199C204.686 81.1732 204.473 82.0799 204.046 83.0399C203.726 83.8933 202.979 84.9066 201.806 86.0799C198.286 90.0266 194.339 93.7066 189.966 97.1199C185.593 100.533 180.899 102.24 175.886 102.24C175.033 102.24 174.126 101.867 173.166 101.12C172.313 100.48 171.619 99.5733 171.086 98.3999C170.659 97.2266 170.659 96.0533 171.086 94.8799L189.646 47.0399C190.499 44.9066 190.446 43.3066 189.486 42.2399C188.633 41.1733 187.619 40.5866 186.446 40.4799C184.739 40.3733 182.446 41.2799 179.566 43.1999C176.686 45.0133 173.486 48.1066 169.966 52.4799C168.366 54.5066 166.126 57.5466 163.246 61.5999C160.473 65.6533 157.593 70.0266 154.606 74.7199C151.726 79.3066 149.219 83.5733 147.086 87.5199C145.273 90.9333 143.566 93.7599 141.966 95.9999C140.366 98.2399 138.926 99.8933 137.646 100.96C136.366 102.133 135.299 102.72 134.446 102.72C133.913 102.72 133.433 102.453 133.006 101.92C132.579 101.493 132.206 100.96 131.886 100.32C131.673 99.6799 131.566 99.0399 131.566 98.3999C131.566 97.8666 131.886 96.5333 132.526 94.3999C133.273 92.1599 134.179 89.5466 135.246 86.5599L150.126 46.5599C151.086 44.1066 150.979 42.4533 149.806 41.5999C148.633 40.6399 147.673 40.1066 146.926 39.9999C145.219 39.7866 142.926 40.6933 140.046 42.7199C137.166 44.6399 133.966 47.7866 130.446 52.1599C129.166 53.6533 127.566 55.7866 125.646 58.5599C123.726 61.3333 121.646 64.4266 119.406 67.8399C117.273 71.1466 115.139 74.5599 113.006 78.0799C110.979 81.4933 109.166 84.6399 107.566 87.5199C104.793 92.6399 102.659 96.4799 101.166 99.0399C99.6726 101.493 98.2859 102.72 97.0059 102.72Z" fill="white"/>
<path d="M225.016 102.4C222.776 102.4 220.483 101.547 218.136 99.8399C215.896 98.1333 214.029 95.9999 212.536 93.4399C211.043 90.7733 210.296 88.2133 210.296 85.7599C210.296 80.4266 211.363 74.7733 213.496 68.7999C215.736 62.7199 218.776 57.0666 222.616 51.8399C226.456 46.5066 230.883 42.1866 235.896 38.8799C241.016 35.4666 246.403 33.7599 252.056 33.7599C255.789 33.7599 258.669 34.5599 260.696 36.1599C262.829 37.6533 263.896 39.7866 263.896 42.5599C263.896 45.8666 262.829 48.7466 260.696 51.1999C258.669 53.6533 255.896 55.7866 252.376 57.5999C248.856 59.3066 244.909 60.7466 240.536 61.9199C236.269 63.0933 231.896 64.1066 227.416 64.9599C226.776 65.0666 226.243 65.2266 225.816 65.4399C225.496 65.5466 225.229 65.9199 225.016 66.5599C224.269 68.9066 223.523 71.4666 222.776 74.2399C222.029 77.0132 221.656 79.6266 221.656 82.0799C221.656 85.8133 222.349 88.6933 223.736 90.7199C225.229 92.7466 227.363 93.7599 230.136 93.7599C233.976 93.7599 237.229 92.7999 239.896 90.8799C242.563 88.9599 244.749 87.0399 246.456 85.1199C247.523 83.9466 248.483 83.3599 249.336 83.3599C250.403 83.3599 250.936 83.8933 250.936 84.9599C250.936 85.0666 250.936 85.2799 250.936 85.5999C250.936 85.8133 250.829 86.0266 250.616 86.2399C248.483 89.7599 246.083 92.7466 243.416 95.1999C240.749 97.5466 237.869 99.3066 234.776 100.48C231.789 101.76 228.536 102.4 225.016 102.4ZM228.536 61.2799C229.709 61.2799 231.683 60.9599 234.456 60.3199C237.336 59.5733 240.323 58.4533 243.416 56.9599C246.509 55.3599 249.123 53.4399 251.256 51.1999C253.496 48.8533 254.616 46.0799 254.616 42.8799C254.616 41.4933 254.243 40.3199 253.496 39.3599C252.749 38.2933 251.683 37.7599 250.296 37.7599C248.056 37.7599 245.603 38.7199 242.936 40.6399C240.376 42.4533 237.923 44.6933 235.576 47.3599C233.229 49.9199 231.256 52.4266 229.656 54.8799C228.163 57.3333 227.416 59.1466 227.416 60.3199C227.416 60.9599 227.789 61.2799 228.536 61.2799Z" fill="white"/>
<path fill-rule="evenodd" clip-rule="evenodd" d="M29.1197 25.5999C29.5464 24.7466 30.3464 23.7866 31.5197 22.7199C32.693 21.5466 33.8664 20.5333 35.0397 19.6799C36.3197 18.8266 37.2264 18.3999 37.7597 18.3999C38.613 18.3999 39.1464 18.9866 39.3597 20.1599C39.573 21.3333 39.4664 22.4533 39.0397 23.5199L34.8797 34.2399C34.6664 34.9866 34.7197 35.4666 35.0397 35.6799C35.4664 35.8933 36.1064 35.9999 36.9597 35.9999C39.093 35.9999 41.2797 36.1599 43.5197 36.4799C45.7597 36.7999 47.573 37.0666 48.9597 37.2799C50.6664 37.5999 51.6797 37.9733 51.9997 38.3999C52.4264 38.7199 52.6397 39.1466 52.6397 39.6799C52.6397 39.8933 52.4264 40.2666 51.9997 40.7999C51.573 41.2266 50.773 41.4933 49.5997 41.5999C47.253 41.7066 45.013 41.8666 42.8797 42.0799C40.7464 42.1866 38.5064 42.2933 36.1597 42.3999C34.453 42.5066 33.2264 42.7733 32.4797 43.1999C31.8397 43.6266 31.413 44.1599 31.1997 44.7999L16.9597 84.1599C16.533 85.4399 16.3197 86.5599 16.3197 87.5199C16.3197 88.4799 16.5864 89.2266 17.1197 89.7599C17.7597 90.2933 18.6664 90.5599 19.8397 90.5599C21.333 90.5599 22.933 90.0266 24.6397 88.9599C26.3464 87.8932 27.9997 86.6666 29.5997 85.2799C31.1997 83.8932 32.533 82.6666 33.5997 81.5999C34.773 80.4266 35.7864 79.8932 36.6397 79.9999C37.493 80.1066 37.9197 80.4799 37.9197 81.1199C37.9197 81.8666 37.653 82.7199 37.1197 83.6799C36.5864 84.5332 35.893 85.4399 35.0397 86.3999C33.333 88.2133 31.5197 89.9199 29.5997 91.5199C27.7864 93.1199 25.8664 94.6133 23.8397 95.9999C21.9197 97.2799 20.053 98.3999 18.2397 99.3599C16.533 100.213 14.9864 100.907 13.5997 101.44C12.213 101.973 11.093 102.24 10.2397 102.24C9.38635 102.24 8.42635 101.867 7.35969 101.12C6.29302 100.48 5.38635 99.7333 4.63969 98.8799C3.99969 97.9199 3.67969 97.0666 3.67969 96.3199C3.67969 94.5066 3.89302 92.9599 4.31969 91.6799C4.85302 90.3999 5.38635 88.9599 5.91969 87.3599L21.1197 44.6399C21.333 43.8933 21.2264 43.4133 20.7997 43.1999C20.4797 42.8799 20.053 42.7199 19.5197 42.7199L13.1197 42.3999C11.733 42.2933 10.8797 42.0266 10.5597 41.5999C10.3464 41.0666 10.2397 40.5866 10.2397 40.1599C10.2397 39.9466 10.5064 39.5733 11.0397 39.0399C11.573 38.3999 12.213 37.8133 12.9597 37.2799C13.813 36.6399 14.7197 36.3199 15.6797 36.3199H21.4397C22.613 36.3199 23.413 36.1599 23.8397 35.8399C24.2664 35.4133 24.7464 34.6133 25.2797 33.4399L29.1197 25.5999ZM23.1927 35.0695C23.4796 34.7522 23.8775 34.1081 24.3693 33.0261C24.3733 33.0174 24.3774 33.0087 24.3816 33.0001L28.2252 25.1527C28.7293 24.1446 29.6259 23.0924 30.8294 21.996C32.029 20.7979 33.2361 19.7551 34.4515 18.8712C34.4547 18.8688 34.458 18.8665 34.4612 18.8642C34.4691 18.8587 34.477 18.8532 34.485 18.8479C35.1468 18.4066 35.7389 18.0575 36.2539 17.8151C36.7434 17.5847 37.267 17.3999 37.7597 17.3999C38.444 17.3999 39.0678 17.6482 39.5396 18.1672C39.9805 18.6522 40.2191 19.2967 40.3436 19.981C40.5889 21.3301 40.4677 22.6397 39.9702 23.8863C39.9695 23.888 39.9688 23.8896 39.9682 23.8913L35.8295 34.5564C35.7937 34.6876 35.7724 34.7944 35.7613 34.8793C35.7611 34.8805 35.761 34.8816 35.7608 34.8828C36.0192 34.9497 36.4063 34.9999 36.9597 34.9999C39.1431 34.9999 41.3771 35.1637 43.6611 35.49C45.9028 35.8102 47.7201 36.0774 49.1117 36.2916C49.1183 36.2926 49.1248 36.2936 49.1314 36.2948C49.1356 36.2955 49.1398 36.2963 49.144 36.2971C50.0235 36.462 50.7645 36.6476 51.3454 36.8616C51.8322 37.0409 52.3505 37.2896 52.6997 37.6783C53.3136 38.1818 53.6397 38.8745 53.6397 39.6799C53.6397 40.0629 53.4697 40.4029 53.3479 40.6161C53.2051 40.866 53.0098 41.138 52.7806 41.4246C52.7575 41.4534 52.7329 41.4809 52.7068 41.507C52.0171 42.1967 50.9064 42.4853 49.6902 42.5958C49.6752 42.5972 49.6602 42.5982 49.6451 42.5989C47.3148 42.7048 45.0929 42.8636 42.9792 43.075C42.9627 43.0766 42.9462 43.0778 42.9296 43.0787C40.7972 43.1853 38.5586 43.2919 36.2137 43.3985C34.5722 43.5017 33.5495 43.7522 33.0049 44.0519C32.5411 44.3684 32.2789 44.7244 32.1484 45.1162C32.1469 45.1206 32.1454 45.1251 32.1438 45.1295C32.1426 45.1331 32.1413 45.1366 32.14 45.1401L17.9044 84.4881C17.5018 85.6988 17.3197 86.7039 17.3197 87.5199C17.3197 88.2636 17.5142 88.7217 17.7957 89.0208C18.1974 89.338 18.8364 89.5599 19.8397 89.5599C21.0911 89.5599 22.5083 89.1128 24.1097 88.1119C25.7702 87.0741 27.3819 85.8787 28.9448 84.5242C30.5333 83.1475 31.8479 81.9375 32.8926 80.8928C34.0978 79.6876 35.4139 78.8389 36.7637 79.0076C37.2927 79.0738 37.8355 79.2375 38.2582 79.6073C38.7179 80.0096 38.9197 80.553 38.9197 81.1199C38.9197 82.098 38.5736 83.122 37.9938 84.1656C37.9855 84.1806 37.9768 84.1954 37.9677 84.2099C37.3978 85.1217 36.668 86.0732 35.7871 87.0643C35.7808 87.0714 35.7744 87.0784 35.7679 87.0853C34.0367 88.9247 32.1975 90.656 30.2506 92.2792C28.4092 93.9032 26.4604 95.4185 24.4044 96.8252L24.3944 96.832C22.4497 98.1284 20.5541 99.2661 18.7076 100.244L18.6869 100.254C16.9591 101.118 15.3824 101.826 13.9587 102.373C12.5295 102.923 11.2746 103.24 10.2397 103.24C9.10869 103.24 7.95759 102.754 6.81511 101.959C5.68059 101.275 4.70143 100.469 3.88711 99.5384C3.85838 99.5056 3.83184 99.4709 3.80764 99.4346C3.11349 98.3934 2.67969 97.3445 2.67969 96.3199C2.67969 94.4336 2.90093 92.7739 3.371 91.3637C3.3787 91.3406 3.38725 91.3178 3.39661 91.2953C3.91884 90.042 4.44379 88.6253 4.971 87.0437L4.97755 87.0247L20.1661 44.3369C20.2007 44.2106 20.2173 44.1138 20.2234 44.0433C20.2242 44.0344 20.2248 44.0261 20.2252 44.0185C20.178 43.9853 20.1336 43.948 20.0926 43.907C19.9933 43.8078 19.8388 43.7199 19.5197 43.7199C19.503 43.7199 19.4864 43.7195 19.4698 43.7187L13.0697 43.3987C13.0662 43.3985 13.0627 43.3983 13.0591 43.3981C13.0538 43.3978 13.0484 43.3974 13.043 43.397C12.311 43.3407 11.6683 43.239 11.1414 43.0744C10.6369 42.9167 10.1053 42.6608 9.75969 42.1999C9.70701 42.1297 9.66382 42.0528 9.63121 41.9713C9.38601 41.3583 9.23969 40.7495 9.23969 40.1599C9.23969 39.7117 9.48329 39.3384 9.62595 39.1387C9.79834 38.8973 10.0302 38.6374 10.3007 38.3648C10.8855 37.6695 11.5771 37.0397 12.3691 36.4729C13.3728 35.7228 14.4831 35.3199 15.6797 35.3199H21.4397C21.9865 35.3199 22.4094 35.2822 22.7236 35.2193C22.9753 35.169 23.1189 35.11 23.1927 35.0695ZM46.8384 95.5199C46.8384 95.4382 46.8485 95.3567 46.8683 95.2774C46.9939 94.7749 47.1803 94.2804 47.4231 93.7946C51.7842 84.9657 55.4506 76.6757 58.424 68.9238C61.407 61.0402 64.0719 54.1644 66.4185 48.2972C66.5024 48.0407 66.5403 47.8515 66.5516 47.72C66.4352 47.7216 66.1541 47.7653 65.6458 47.9178C65.1518 48.0659 64.5154 48.2942 63.7298 48.6084C63.7182 48.613 63.7065 48.6175 63.6948 48.6217C62.2653 49.1322 60.7171 49.853 59.0487 50.7915C57.3772 51.7317 55.9256 52.6655 54.6898 53.5914C53.941 54.1847 53.0381 54.4208 52.107 54.0484C51.7074 53.8885 51.3342 53.6385 51.0647 53.2612C50.7914 52.8785 50.6784 52.44 50.6784 51.9999C50.6784 51.5147 50.8432 51.0342 51.064 50.5927C51.2901 50.1405 51.6119 49.6567 52.0091 49.146L52.0175 49.1352C52.9115 48.0177 54.0694 46.8074 55.4802 45.5051C55.4892 45.4968 55.4983 45.4887 55.5076 45.4807C57.0306 44.1753 58.8158 42.8233 60.8593 41.4245C62.9096 39.9146 65.118 38.4607 67.4838 37.0625C69.9734 35.5474 72.5704 34.195 75.2745 33.0051C76.5819 32.4249 77.9021 32.6005 79.1131 33.4079C80.1871 34.1239 81.0395 35.0283 81.6527 36.1188C81.9943 36.6358 82.2578 37.1475 82.4 37.6452C82.5463 38.1572 82.5806 38.7171 82.3669 39.2513L82.3597 39.2688L62.8397 85.5088C62.8314 85.5285 62.8224 85.548 62.8129 85.5671C62.4245 86.3438 62.1353 87.1122 61.9411 87.8729C61.8449 88.5605 61.7984 89.189 61.7984 89.7599C61.7984 90.165 61.904 90.3446 62.0382 90.4511C62.5487 90.6107 62.9864 90.6799 63.3584 90.6799C64.5477 90.6799 66.0432 90.1225 67.8787 88.7995C69.7636 87.3326 71.7602 85.5989 73.8688 83.5958C76.1034 81.4676 78.2308 79.3933 80.2513 77.3728C80.5737 77.0505 81.0263 76.7599 81.5984 76.7599C82.1093 76.7599 82.525 76.9916 82.8376 77.2708C83.0111 77.3795 83.1784 77.527 83.3105 77.7252C83.4852 77.9872 83.5584 78.2783 83.5584 78.5599C83.5584 80.6134 82.3659 83.026 80.3146 85.725L80.3025 85.7406C78.2282 88.3607 75.6213 91.0191 72.4914 93.7173L72.4892 93.7192C69.457 96.3182 66.3112 98.5427 63.0514 100.39C59.7705 102.249 56.7699 103.24 54.0784 103.24C52.027 103.24 50.2705 102.566 48.8913 101.187C47.5884 99.8842 46.8384 98.4172 46.8384 96.7999V95.5199ZM82.2384 78.0799C82.0251 77.8666 81.8118 77.7599 81.5984 77.7599C81.3851 77.7599 81.1718 77.8666 80.9584 78.0799C78.9318 80.1066 76.7984 82.1866 74.5584 84.3199C72.4251 86.3466 70.3984 88.1066 68.4784 89.5999C66.5584 90.9866 64.8518 91.6799 63.3584 91.6799C62.8251 91.6799 62.2384 91.5733 61.5984 91.3599C61.0651 91.0399 60.7984 90.5066 60.7984 89.7599C60.7984 89.1199 60.8518 88.4266 60.9584 87.6799C61.1718 86.8266 61.4918 85.9733 61.9184 85.1199L81.4384 38.8799C81.6518 38.3466 81.4384 37.5999 80.7984 36.6399C80.2651 35.6799 79.5184 34.8799 78.5584 34.2399C77.5984 33.5999 76.6384 33.4933 75.6784 33.9199C73.0118 35.0933 70.4518 36.4266 67.9984 37.9199C65.6518 39.3066 63.4651 40.7466 61.4384 42.2399C59.4118 43.6266 57.6518 44.9599 56.1584 46.2399C54.7718 47.5199 53.6518 48.6933 52.7984 49.7599C52.0518 50.7199 51.6784 51.4666 51.6784 51.9999C51.6784 52.5333 51.9451 52.9066 52.4784 53.1199C53.0118 53.3333 53.5451 53.2266 54.0784 52.7999C55.3584 51.8399 56.8518 50.8799 58.5584 49.9199C60.2651 48.9599 61.8651 48.2133 63.3584 47.6799C64.9584 47.0399 66.0251 46.7199 66.5584 46.7199C67.5184 46.7199 67.7851 47.3599 67.3584 48.6399C65.0118 54.5066 62.3451 61.3866 59.3584 69.2799C56.3718 77.0666 52.6918 85.3866 48.3184 94.2399C48.1051 94.6666 47.9451 95.0933 47.8384 95.5199V96.7999C47.8384 98.0799 48.4251 99.3066 49.5984 100.48C50.7718 101.653 52.2651 102.24 54.0784 102.24C56.5318 102.24 59.3584 101.333 62.5584 99.5199C65.7584 97.7066 68.8518 95.5199 71.8384 92.9599C74.9318 90.2933 77.4918 87.6799 79.5184 85.1199C81.5451 82.4533 82.5584 80.2666 82.5584 78.5599C82.5584 78.3466 82.4518 78.1866 82.2384 78.0799ZM93.3744 15.8769C93.3718 15.8797 93.3692 15.8825 93.3666 15.8853C91.4742 17.896 89.1322 18.9199 86.3984 18.9199C84.4878 18.9199 82.8778 18.1373 81.6302 16.6401C80.4205 15.1885 79.7984 13.5242 79.7984 11.6799C79.7984 8.87854 80.7393 6.40578 82.6021 4.30559C84.4899 2.06907 86.8961 0.919922 89.7584 0.919922C91.8159 0.919922 93.4555 1.84838 94.5903 3.60466C95.6611 5.15717 96.1984 6.89814 96.1984 8.79992C96.1984 11.4155 95.2386 13.78 93.3858 15.8643C93.3821 15.8685 93.3783 15.8728 93.3744 15.8769ZM93.7584 4.15992C92.7984 2.66659 91.4651 1.91992 89.7584 1.91992C87.1984 1.91992 85.0651 2.93325 83.3584 4.95992C81.6518 6.87992 80.7984 9.11992 80.7984 11.6799C80.7984 13.2799 81.3318 14.7199 82.3984 15.9999C83.4651 17.2799 84.7984 17.9199 86.3984 17.9199C88.8518 17.9199 90.9318 17.0133 92.6384 15.1999C94.3451 13.2799 95.1984 11.1466 95.1984 8.79992C95.1984 7.09326 94.7184 5.54659 93.7584 4.15992ZM93.5268 100.394C93.5102 100.355 93.496 100.315 93.4844 100.275C93.2508 99.457 93.1259 98.6701 93.1259 97.9199C93.1259 97.5163 93.2366 96.9543 93.3958 96.3174C93.5628 95.6496 93.8094 94.8014 94.1324 93.7788C94.1371 93.7638 94.1422 93.7489 94.1476 93.7342C94.8927 91.7117 95.7982 89.2084 96.8642 86.2236L96.8717 86.2033L111.593 47.6409C112.059 46.4275 111.995 45.5835 111.652 44.9656C111.327 44.3815 110.795 44.0399 109.806 44.0399C108.365 44.0399 106.792 44.3754 105.077 45.0803C103.634 45.7163 101.638 47.5968 99.0859 50.9999C99.0575 51.0378 99.0265 51.0736 98.993 51.107C98.4057 51.6944 97.6802 52.0399 96.8459 52.0399C96.7642 52.0399 96.6827 52.0299 96.6034 52.0101C95.6266 51.7659 95.16 50.859 94.9244 50.0346C94.8989 49.9453 94.8859 49.8528 94.8859 49.7599C94.8859 49.0217 95.0072 48.1467 95.2274 47.1534C95.4534 46.0271 95.7907 44.9053 96.2375 43.7885C96.2478 43.7628 96.2591 43.7375 96.2715 43.7127C96.8167 42.6222 97.3336 41.7496 97.8251 41.1352L97.8287 41.1307C99.7204 38.7939 102.001 36.8487 104.662 35.2961C107.395 33.7017 110.66 32.8708 114.417 32.7604C114.426 32.7601 114.436 32.7599 114.446 32.7599C116.047 32.7599 117.595 33.0437 119.084 33.6109C120.789 34.1088 122.074 35.1195 122.846 36.6446C123.801 38.3077 123.63 40.4198 122.74 42.7559L122.739 42.7593L114.335 64.5793C118.559 58.2004 122.608 52.7234 126.483 48.1532L126.491 48.1437C130.795 43.1949 134.914 39.3929 138.851 36.7679L138.862 36.7609C142.911 34.1343 146.779 32.7599 150.446 32.7599C152.675 32.7599 154.693 33.4086 156.465 34.7046C158.398 36.0385 159.634 38.0208 160.215 40.5519C160.925 43.0646 160.593 46.109 159.392 49.6043L154.243 64.6213C158.408 57.9279 162.492 52.3227 166.499 47.8156L166.499 47.8145C170.915 42.86 175.204 39.105 179.368 36.5844C183.52 34.0717 187.432 32.7599 191.086 32.7599C193.342 32.7599 195.375 33.4789 197.151 34.8991C198.985 36.3664 200.09 38.5269 200.548 41.2517C201.134 43.9795 200.577 47.2831 199.056 51.0864C199.056 51.0881 199.055 51.0897 199.054 51.0913L185.298 86.6012C185.295 86.609 185.292 86.6168 185.289 86.6245C184.496 88.5288 184.263 89.7501 184.356 90.4223C184.398 90.7182 184.489 90.8177 184.541 90.8591C184.606 90.911 184.773 90.9999 185.166 90.9999C186.162 90.9999 187.512 90.5331 189.263 89.4004C191.03 88.2569 192.804 86.9011 194.584 85.3301C194.591 85.3239 194.599 85.3177 194.606 85.3117C196.51 83.7249 198.145 82.3008 199.513 81.0386L202.369 78.1828L202.376 78.1753L202.378 78.1734C202.566 77.9859 202.821 77.8799 203.086 77.8799H203.406C204.058 77.8799 204.569 78.1963 204.924 78.6479C205.444 79.0681 205.686 79.667 205.686 80.3199C205.686 81.3333 205.435 82.3699 204.971 83.4202C204.573 84.4616 203.717 85.5804 202.534 86.7665C198.976 90.7521 194.992 94.4659 190.581 97.9082C186.052 101.443 181.146 103.24 175.886 103.24C174.735 103.24 173.62 102.738 172.559 101.915C171.549 101.155 170.763 100.105 170.176 98.8137C170.165 98.7901 170.155 98.7661 170.146 98.7417C169.639 97.3476 169.639 95.9323 170.146 94.5382L170.154 94.5182L188.717 46.6685C189.522 44.6575 189.315 43.5453 188.743 42.9089C188.73 42.8945 188.717 42.8797 188.705 42.8646C187.996 41.9785 187.223 41.5585 186.369 41.4771C185.013 41.3983 182.964 42.1364 180.121 44.032C180.117 44.0346 180.113 44.0372 180.109 44.0398C180.105 44.0419 180.102 44.0441 180.099 44.0462C177.354 45.7743 174.236 48.77 170.747 53.1039C169.165 55.1091 166.939 58.1287 164.066 62.1718C161.302 66.2125 158.43 70.5737 155.45 75.2556C152.581 79.8251 150.087 84.0707 147.967 87.9931C147.966 87.9939 147.966 87.9946 147.966 87.9954L147.086 87.5199M137.646 100.96C136.366 102.133 135.299 102.72 134.446 102.72C133.913 102.72 133.433 102.453 133.006 101.92C132.579 101.493 132.206 100.96 131.886 100.32C131.673 99.6799 131.566 99.0399 131.566 98.3999C131.566 97.8666 131.886 96.5333 132.526 94.3999C133.273 92.1599 134.179 89.5466 135.246 86.5599L150.126 46.5599C151.086 44.1066 150.979 42.4533 149.806 41.5999C148.633 40.6399 147.673 40.1066 146.926 39.9999C145.219 39.7866 142.926 40.6933 140.046 42.7199C137.166 44.6399 133.966 47.7866 130.446 52.1599C129.166 53.6533 127.566 55.7866 125.646 58.5599C123.726 61.3333 121.646 64.4266 119.406 67.8399C117.273 71.1466 115.139 74.5599 113.006 78.0799C110.979 81.4933 109.166 84.6399 107.566 87.5199C104.793 92.6399 102.659 96.4799 101.166 99.0399C99.6726 101.493 98.2859 102.72 97.0059 102.72C96.4726 102.72 95.9926 102.453 95.5659 101.92C95.1393 101.387 94.7659 100.747 94.4459 99.9999C94.2326 99.2533 94.1259 98.5599 94.1259 97.9199C94.1259 97.3866 94.4459 96.1066 95.0859 94.0799C95.8326 92.0533 96.7393 89.5466 97.8059 86.5599L112.526 47.9999C113.059 46.6133 113.059 45.4399 112.526 44.4799C111.993 43.5199 111.086 43.0399 109.806 43.0399C108.206 43.0399 106.499 43.4133 104.686 44.1599C102.979 44.9066 100.846 46.9866 98.2859 50.3999C97.8593 50.8266 97.3793 51.0399 96.8459 51.0399C96.4193 50.9333 96.0993 50.5066 95.8859 49.7599C95.8859 49.1199 95.9926 48.3199 96.2059 47.3599C96.4193 46.2933 96.7393 45.2266 97.1659 44.1599C97.6993 43.0933 98.1793 42.2933 98.6059 41.7599C100.419 39.5199 102.606 37.6533 105.166 36.1599C107.726 34.6666 110.819 33.8666 114.446 33.7599C115.939 33.7599 117.379 34.0266 118.766 34.5599C120.259 34.9866 121.326 35.8399 121.966 37.1199C122.713 38.3999 122.659 40.1599 121.806 42.3999L112.686 66.0799C112.366 66.8266 112.419 67.2533 112.846 67.3599C113.379 67.4666 113.806 67.2533 114.126 66.7199C118.713 59.6799 123.086 53.7066 127.246 48.7999C131.513 43.8933 135.566 40.1599 139.406 37.5999C143.353 35.0399 147.033 33.7599 150.446 33.7599C152.473 33.7599 154.286 34.3466 155.886 35.5199C157.593 36.6933 158.713 38.4533 159.246 40.7999C159.886 43.0399 159.619 45.8666 158.446 49.2799L152.686 66.0799C152.366 66.8266 152.419 67.2533 152.846 67.3599C153.379 67.4666 153.806 67.2533 154.126 66.7199C158.606 59.3599 162.979 53.2799 167.246 48.4799C171.619 43.5733 175.833 39.8933 179.886 37.4399C183.939 34.9866 187.673 33.7599 191.086 33.7599C193.113 33.7599 194.926 34.3999 196.526 35.6799C198.126 36.9599 199.139 38.8799 199.566 41.4399C200.099 43.8933 199.619 46.9866 198.126 50.7199L184.366 86.2399C182.766 90.0799 183.033 91.9999 185.166 91.9999C186.446 91.9999 187.993 91.4133 189.806 90.2399C191.619 89.0666 193.433 87.6799 195.246 86.0799C197.166 84.4799 198.819 83.0399 200.206 81.7599L203.086 78.8799H203.406C203.726 78.8799 203.993 79.0399 204.206 79.3599C204.526 79.5733 204.686 79.8932 204.686 80.3199C204.686 81.1733 204.473 82.0799 204.046 83.0399C203.726 83.8932 202.979 84.9066 201.806 86.0799C198.286 90.0266 194.339 93.7066 189.966 97.1199C185.593 100.533 180.899 102.24 175.886 102.24C175.033 102.24 174.126 101.867 173.166 101.12C172.313 100.48 171.619 99.5733 171.086 98.3999C170.659 97.2266 170.659 96.0533 171.086 94.8799L189.646 47.0399C190.499 44.9066 190.446 43.3066 189.486 42.2399C188.633 41.1733 187.619 40.5866 186.446 40.4799C184.739 40.3733 182.446 41.2799 179.566 43.1999C176.686 45.0133 173.486 48.1066 169.966 52.4799C168.366 54.5066 166.126 57.5466 163.246 61.5999C160.473 65.6533 157.593 70.0266 154.606 74.7199M108.442 88.0013C105.669 93.121 103.531 96.9706 102.03 99.5438L102.02 99.5599C101.247 100.83 100.466 101.843 99.6685 102.549C98.8727 103.253 97.9794 103.72 97.0059 103.72C96.0869 103.72 95.3436 103.243 94.7851 102.545C94.2927 101.929 93.8758 101.208 93.5268 100.394M108.442 88.0013C110.036 85.1335 111.843 81.9981 113.863 78.5948C115.991 75.0848 118.118 71.6816 120.244 68.3853C122.48 64.9788 124.554 61.8936 126.468 59.1291C128.38 56.3672 129.958 54.266 131.205 52.8107C131.212 52.8029 131.218 52.795 131.225 52.7869C134.716 48.4501 137.841 45.3914 140.601 43.552C140.608 43.5473 140.615 43.5426 140.621 43.5377C143.472 41.5321 145.487 40.8324 146.793 40.991C147.253 41.06 148.031 41.4395 149.173 42.3739C149.178 42.3783 149.184 42.3827 149.189 42.387C149.198 42.3944 149.208 42.4016 149.218 42.4087C149.528 42.6344 149.731 42.9671 149.768 43.5443C149.808 44.1638 149.649 45.0335 149.195 46.1955L149.189 46.2113L134.309 86.2112L134.304 86.2236C133.236 89.2148 132.327 91.8351 131.577 94.0837C131.574 94.0933 131.571 94.1029 131.568 94.1126C131.246 95.1876 131 96.0742 130.834 96.7666C130.675 97.4269 130.566 98.0002 130.566 98.3999C130.566 99.1531 130.692 99.8997 130.937 100.636C130.952 100.681 130.97 100.725 130.992 100.767C131.342 101.468 131.762 102.081 132.261 102.589C132.815 103.263 133.546 103.72 134.446 103.72C135.7 103.72 137.008 102.898 138.304 101.713M217.548 100.649L217.53 100.635C215.18 98.8452 213.228 96.6109 211.672 93.9438L211.663 93.9285C210.107 91.1488 209.296 88.4215 209.296 85.7599C209.296 80.2926 210.389 74.525 212.554 68.4636L212.558 68.4542C214.83 62.2875 217.913 56.5523 221.808 51.2511C225.711 45.8311 230.222 41.4249 235.344 38.0463C240.612 34.5346 246.189 32.7599 252.056 32.7599C255.904 32.7599 259.028 33.58 261.293 35.3572C263.698 37.051 264.896 39.4952 264.896 42.5599C264.896 46.0989 263.748 49.2099 261.459 51.8465C259.328 54.4223 256.441 56.6305 252.834 58.4889L252.812 58.4997C249.228 60.2375 245.222 61.698 240.798 62.8851C236.505 64.0653 232.107 65.0843 227.603 65.9423L227.58 65.9463C227.006 66.0421 226.575 66.1784 226.263 66.3344C226.244 66.344 226.224 66.353 226.204 66.3613C226.2 66.3667 226.195 66.3732 226.19 66.3812C226.135 66.4577 226.054 66.6083 225.967 66.87C225.226 69.1984 224.484 71.7415 223.742 74.4999C223.014 77.2025 222.656 79.7278 222.656 82.0799C222.656 85.7001 223.33 88.3464 224.551 90.1407C225.834 91.8737 227.65 92.7599 230.136 92.7599C233.803 92.7599 236.843 91.8461 239.312 90.0684C241.934 88.1801 244.062 86.3079 245.709 84.4556L245.716 84.4472C246.824 83.2287 248.038 82.3599 249.336 82.3599C250.023 82.3599 250.723 82.5325 251.243 83.0528C251.763 83.5732 251.936 84.2724 251.936 84.9599M223.736 90.7199C222.349 88.6933 221.656 85.8133 221.656 82.0799C221.656 79.6266 222.029 77.0133 222.776 74.2399C223.523 71.4666 224.269 68.9066 225.016 66.5599C225.229 65.9199 225.496 65.5466 225.816 65.4399C226.243 65.2266 226.776 65.0666 227.416 64.9599C231.896 64.1066 236.269 63.0933 240.536 61.9199C244.909 60.7466 248.856 59.3066 252.376 57.5999C255.896 55.7866 258.669 53.6533 260.696 51.1999C262.829 48.7466 263.896 45.8666 263.896 42.5599C263.896 39.7866 262.829 37.6533 260.696 36.1599C258.669 34.5599 255.789 33.7599 252.056 33.7599C246.403 33.7599 241.016 35.4666 235.896 38.8799C230.883 42.1866 226.456 46.5066 222.616 51.8399C218.776 57.0666 215.736 62.7199 213.496 68.7999C211.363 74.7733 210.296 80.4266 210.296 85.7599C210.296 88.2133 211.043 90.7733 212.536 93.4399C214.029 95.9999 215.896 98.1333 218.136 99.8399C220.483 101.547 222.776 102.4 225.016 102.4C228.536 102.4 231.789 101.76 234.776 100.48C237.869 99.3066 240.749 97.5466 243.416 95.1999C246.083 92.7466 248.483 89.7599 250.616 86.2399C250.829 86.0266 250.936 85.8133 250.936 85.5999V84.9599C250.936 83.8932 250.403 83.3599 249.336 83.3599C248.483 83.3599 247.523 83.9466 246.456 85.1199C244.749 87.0399 242.563 88.9599 239.896 90.8799C237.229 92.7999 233.976 93.7599 230.136 93.7599C227.363 93.7599 225.229 92.7466 223.736 90.7199ZM244.077 95.9506L244.093 95.9359ZM250.533 50.5094L250.532 50.5103ZM252.677 39.9334C252.686 39.9471 252.696 39.9606 252.707 39.9739ZM243.52 41.4515L243.514 41.456C241.025 43.2189 238.629 45.4047 236.327 48.0205L236.313 48.0356M217.548 100.649C220.015 102.443 222.51 103.4 225.016 103.4ZM251.936 85.5999V85.5887ZM251.936 85.5887V85.5869ZM251.936 85.5869V85.585ZM251.936 85.585V85.5831ZM251.936 85.5831V85.5813ZM251.936 85.5813V85.5795ZM251.936 85.5795V85.5776ZM251.936 85.5776V85.5758ZM251.936 85.5758V85.5739ZM251.936 85.5739V85.5721ZM251.936 85.5721V85.5702ZM251.936 85.5702V85.5684ZM251.936 85.5684V85.5666ZM251.936 85.5666V85.5647ZM251.936 85.5647V85.5629ZM251.936 85.5629V85.5611ZM251.936 85.5611V85.5593ZM251.936 85.5593V85.5574ZM251.936 85.5574V85.5556ZM251.936 85.5556V85.5538ZM251.936 85.5538V85.552ZM251.936 85.552V85.5502ZM251.936 85.5502V85.5484ZM251.936 85.5484V85.5466ZM251.936 85.5466V85.5448ZM251.936 85.5448V85.543ZM251.936 85.543V85.5412ZM251.936 85.5412V85.5394ZM251.936 85.5394V85.5376ZM251.936 85.5376V85.5358ZM251.936 85.5358V85.534ZM251.936 85.534V85.5322ZM251.936 85.5322V85.5304ZM251.936 85.5304V85.5287ZM251.936 85.5287V85.5269ZM251.936 85.5269V85.5251ZM251.936 85.5251V85.5233ZM251.936 85.5233V85.5216ZM251.936 85.5216V85.5198ZM251.936 85.5198V85.518ZM251.936 85.518V85.5163ZM251.936 85.5163V85.5145ZM251.936 85.5145V85.5127ZM251.936 85.5127V85.511ZM251.936 85.511V85.5092ZM251.936 85.5092V85.5075ZM251.936 85.5075V85.5057ZM251.936 85.5057V85.504ZM251.936 85.504V85.5022ZM251.936 85.5022V85.5005ZM251.936 85.5005V85.4987ZM251.936 85.4987V85.497ZM251.936 85.497V85.4953ZM251.936 85.4953V85.4935ZM251.936 85.4935V85.4918ZM251.936 85.4918V85.4901ZM251.936 85.4901V85.4884ZM251.936 85.4884V85.4866ZM251.936 85.4866V85.4849ZM251.936 85.4849V85.4832ZM251.936 85.4832V85.4815ZM251.936 85.4815V85.4798ZM251.936 85.4798V85.4781ZM244.093 95.9359C246.838 93.4108 249.295 90.3481 251.471 86.7582ZM225.016 103.4C228.66 103.4 232.049 102.737 235.17 101.399ZM250.532 50.5103C248.484 52.6604 245.963 54.5164 242.957 56.0717ZM251.256 51.1999C249.123 53.4399 246.509 55.3599 243.416 56.9599C240.323 58.4533 237.336 59.5733 234.456 60.3199C231.683 60.9599 229.709 61.2799 228.536 61.2799C227.789 61.2799 227.416 60.9599 227.416 60.3199C227.416 59.1466 228.163 57.3333 229.656 54.8799C231.256 52.4266 233.229 49.9199 235.576 47.3599C237.923 44.6933 240.376 42.4533 242.936 40.6399C245.603 38.7199 248.056 37.7599 250.296 37.7599C251.683 37.7599 252.749 38.2933 253.496 39.3599C254.243 40.3199 254.616 41.4933 254.616 42.8799C254.616 46.0799 253.496 48.8533 251.256 51.1999ZM252.707 39.9739C253.298 40.7342 253.616 41.6829 253.616 42.8799ZM243.52 41.4515C246.093 39.5994 248.343 38.7599 250.296 38.7599Z" fill="white"/>
</svg>
